<svg xmlns="http://www.w3.org/2000/svg" viewBox="0 0 1920 1080" preserveAspectRatio="xMidYMid slice">

  <!-- TOP LEFT jagged spike cluster -->
  <g fill="#87c33b" opacity="0.7">
    <path d="M0,0 L180,0 L150,35 L220,25 L180,70 L240,85 L170,115 L130,90 L110,160 L80,130 L55,200 L35,155 L0,140 Z"/>
    <path d="M185,60 L295,44 L272,76 Z"/>
    <path d="M202,96 L318,112 L294,80 Z"/>
    <path d="M158,132 L242,182 L218,152 Z"/>
    <path d="M68,188 L52,285 L84,268 Z"/>
    <path d="M112,172 L132,262 L104,246 Z"/>
    <path d="M292,38 L314,28 L308,56 Z"/>
    <path d="M325,82 L348,72 L340,97 Z"/>
    <path d="M138,278 L130,304 L152,292 Z"/>
    <path d="M252,188 L274,177 L267,200 Z"/>
    <path d="M355,55 L370,45 L366,62 Z"/>
  </g>

  <!-- TOP RIGHT jagged spike cluster -->
  <g fill="#87c33b" opacity="0.6">
    <path d="M1920,0 L1740,0 L1770,38 L1700,28 L1740,72 L1678,88 L1752,118 L1792,92 L1812,162 L1842,132 L1866,202 L1887,157 L1920,142 Z"/>
    <path d="M1733,62 L1638,46 L1660,80 Z"/>
    <path d="M1718,100 L1608,114 L1632,82 Z"/>
    <path d="M1852,190 L1870,285 L1838,268 Z"/>
    <path d="M1808,174 L1787,266 L1815,250 Z"/>
    <path d="M1628,40 L1606,30 L1614,58 Z"/>
    <path d="M1598,84 L1574,74 L1582,99 Z"/>
    <path d="M1784,280 L1792,306 L1768,293 Z"/>
    <path d="M1565,58 L1550,46 L1556,65 Z"/>
  </g>

  <!-- BOTTOM LEFT jagged spike cluster -->
  <g fill="#87c33b" opacity="0.55">
    <path d="M0,1080 L180,1080 L150,1045 L220,1055 L178,1010 L240,994 L168,964 L128,990 L108,920 L78,950 L53,878 L33,924 L0,940 Z"/>
    <path d="M183,1022 L282,1037 L258,1004 Z"/>
    <path d="M163,980 L258,962 L236,992 Z"/>
    <path d="M70,876 L56,798 L88,814 Z"/>
    <path d="M110,912 L130,824 L106,840 Z"/>
    <path d="M294,1040 L316,1050 L308,1024 Z"/>
    <path d="M262,977 L285,965 L278,992 Z"/>
    <path d="M320,910 L342,900 L336,924 Z"/>
  </g>

  <!-- BOTTOM RIGHT jagged spike cluster -->
  <g fill="#87c33b" opacity="0.65">
    <path d="M1920,1080 L1738,1080 L1768,1042 L1698,1052 L1738,1008 L1678,992 L1748,962 L1788,988 L1808,916 L1838,948 L1863,876 L1884,922 L1920,938 Z"/>
    <path d="M1733,1020 L1638,1034 L1660,1002 Z"/>
    <path d="M1716,977 L1620,958 L1642,990 Z"/>
    <path d="M1866,873 L1850,796 L1882,812 Z"/>
    <path d="M1806,914 L1826,826 L1800,842 Z"/>
    <path d="M1626,1044 L1604,1054 L1614,1028 Z"/>
    <path d="M1620,977 L1598,965 L1607,992 Z"/>
  </g>

  <!-- DIAGONAL BRUSH STROKES -->
  <g fill="#87c33b">
    <path d="M360,0 L418,0 L1920,974 L1862,974 Z" opacity="0.14"/>
    <path d="M510,0 L536,0 L1920,1048 L1894,1048 Z" opacity="0.09"/>
    <path d="M1560,0 L1598,0 L1218,1080 L1178,1080 Z" opacity="0.11"/>
    <path d="M0,360 L0,402 L310,558 L268,536 Z" opacity="0.14"/>
    <path d="M1920,638 L1920,678 L1622,514 L1664,494 Z" opacity="0.11"/>
  </g>

  <!-- SCATTERED SHARP DROPLETS -->
  <g fill="#87c33b">
    <path d="M618,16 L627,0 L636,16 L627,23 Z" opacity="0.32"/>
    <path d="M718,20 L729,6 L740,20 L729,27 Z" opacity="0.26"/>
    <path d="M1178,13 L1189,0 L1200,13 L1189,19 Z" opacity="0.28"/>
    <path d="M478,1064 L489,1080 L500,1064 L489,1057 Z" opacity="0.26"/>
    <path d="M1378,1067 L1390,1080 L1402,1067 L1390,1061 Z" opacity="0.22"/>
    <path d="M0,458 L16,468 L0,478 Z" opacity="0.26"/>
    <path d="M1920,578 L1904,588 L1920,598 Z" opacity="0.22"/>
    <path d="M355,42 L364,28 L373,42 L364,48 Z" opacity="0.2"/>
    <path d="M1565,62 L1576,48 L1587,62 L1576,68 Z" opacity="0.2"/>
    <path d="M248,308 L258,294 L268,308 L258,314 Z" opacity="0.18"/>
    <path d="M1672,762 L1683,748 L1694,762 L1683,768 Z" opacity="0.18"/>
  </g>

</svg>
